<?xml version="1.0" encoding="utf-8"?>
<!-- Generator: Adobe Illustrator 19.0.0, SVG Export Plug-In . SVG Version: 6.00 Build 0)  -->
<svg version="1.1" id="Layer_1" xmlns="http://www.w3.org/2000/svg" width="15.000000pt" height="15.000000pt" xmlns:xlink="http://www.w3.org/1999/xlink" x="0px" y="0px"
	 viewBox="15 76 641 641" style="enable-background:new 15 76 641 641;" xml:space="preserve">
<style type="text/css">
	.st0{fill:#FFFFFF;}
</style>
<g transform="translate(0.000000,641.000000) scale(0.100000,-0.100000)">
	<path class="st0" d="M5540,5629c-991-76-1960-474-2707-1113c-209-179-442-417-593-608c-25-31-49-57-55-58c-5,0-48,17-95,37
		c-388,167-868,142-1245-65c-346-190-569-502-656-920c-32-151-32-389,0-550c98-498,426-871,911-1035c198-67,338-84,408-48
		c82,42,105,89,127,262c23,187,101,557,122,579c4,5,1263-1251,1263-1261c0-17-344-93-550-120c-205-27-248-46-291-131
		c-36-70-19-210,48-408c164-485,537-813,1035-911c161-32,399-32,550,0c418,87,730,310,920,656c207,377,232,857,65,1245
		c-20,47-37,90-37,95c1,6,27,30,58,55c104,83,316,276,415,379c765,798,1224,1830,1307,2941c13,175,13,486,0,664
		c-9,121-15,149-38,196c-23,46-36,59-82,82c-47,23-75,29-196,38C6065,5641,5697,5641,5540,5629z M6137,5226c4-4,8-134,7-289
		c0-229-4-317-23-467c-61-501-179-913-385-1345c-449-939-1232-1683-2211-2104l-70-30l-777,776c-677,677-775,779-768,797
		c57,144,165,365,255,521c436,758,1093,1369,1870,1741c338,161,657,266,1030,338c120,23,413,60,545,70
		C5709,5240,6129,5235,6137,5226z M1661,3605c92-13,246-62,275-86c12-10,12-14,1-28c-53-61-244-411-329-601c-93-210-104-239-166-425
		c-81-244-148-500-183-708c-11-67-12-68-38-62c-14,4-58,22-98,40c-253,117-456,351-549,635c-26,79-28,97-28,250c-1,147,2,174,23,245
		c116,384,442,682,811,740C1493,3623,1547,3623,1661,3605z M4478,908c116-353,22-709-260-989c-124-123-269-208-443-260
		c-71-21-98-24-245-23c-153,0-171,2-250,28c-284,93-518,296-635,549c-18,40-36,84-40,98c-6,26-5,27,62,38c208,35,464,102,708,183
		c186,62,215,73,425,166c199,89,587,303,607,335C4419,1052,4447,1003,4478,908z"/>
	<path class="st0" d="M4618,4450c-264-32-445-175-536-422c-24-67-26-85-27-228c0-137,3-163,24-225c67-201,205-339,406-406
		c62-21,88-24,225-24c143,1,161,3,228,27c273,100,422,316,424,613c1,165-30,279-106,398C5131,4375,4877,4481,4618,4450z M4797,4060
		c60-27,138-103,168-163c48-97,24-199-70-292c-124-125-248-123-376,4c-127,128-129,252-4,376C4604,4075,4706,4102,4797,4060z"/>
</g>
</svg>
